# xmcd CD database file
#
# Track frame offsets:
#	150
#	18825
#	37765
#	59912
#	74987
#	96452
#	120787
#	137962
#	158600
#	185090
#	209880
#
# Disc length: 3123 seconds
#
# Revision: 0
# Processed by: cddbd v1.5.2PL0 Copyright (c) Steve Scherf et al.
# Submitted via: CDex 1.70beta2
#
DISCID=a80c310b
DTITLE=Big John Dickerson w/Down Right Tight - Nite Life
DYEAR=1994
DGENRE=Blues
TTITLE0=Nite Life
TTITLE1=DRT
TTITLE2=Raggedy Ride
TTITLE3=No Foolin'
TTITLE4=Closer 2 U
TTITLE5=Polyester Playboy
TTITLE6=The Bayfront Blues
TTITLE7=What Your Missin'
TTITLE8=Poison Butterfly
TTITLE9=Off The Top
TTITLE10=Goin' Down
EXTD=YEAR: 1994
EXTT0=
EXTT1=
EXTT2=
EXTT3=
EXTT4=
EXTT5=
EXTT6=
EXTT7=
EXTT8=
EXTT9=
EXTT10=
PLAYORDER=
